<svg width="1440" height="110" viewBox="0 0 1440 110" fill="none" xmlns="http://www.w3.org/2000/svg">
<path opacity="0.5" d="M1440 110V94.19C1424.4 73.08 1406.83 53.14 1382.77 37.95C1320.71 -1.27 1242 -1 1170.5 18.42C1133.12 28.57 1098.4 44.49 1062.9 58.22C1013.8 77.22 961.224 104.22 905.904 107.89C862.392 110.74 820.824 98.47 787.584 76.33C749.46 50.94 712.8 14.33 663.228 3.33C614.7 -7.46 565.608 10.02 520.272 27.61C474.936 45.2 430.08 66.61 379.968 70.66C308.292 76.51 244.032 47.78 177.288 31.82C141.048 23.16 106.488 25.65 72.78 39.32C45.864 50.21 15.1799 66.25 0 88.56V110L1440 110Z" fill="#00CEFB"/>
</svg>
